<svg t="1705148732824" class="icon" viewBox="0 0 1024 1024" version="1.1" xmlns="http://www.w3.org/2000/svg" p-id="4918" width="24" height="24" data-spm-anchor-id="a313x.manage_type_myprojects.0.i6.19523a81575j0I"><path d="M177.7 316.6c14.3 0 27.1-9.6 31.1-23.5 2.4-8.3 1.4-17.2-2.7-24.8-4.2-7.6-11.1-13.1-19.4-15.6-20.4-5.9-34.6-25-34.6-46.3 0-26.6 21.5-48.2 48-48.2 20.3 0 38.5 12.9 45.3 32.1 4.6 13 16.8 21.7 30.6 21.7 3.7 0 7.3-0.6 10.8-1.9 8.1-2.9 14.8-8.9 18.4-16.7 3.7-7.8 4.2-16.7 1.3-24.9-16-45.1-58.7-75.4-106.4-75.4-62.3 0-112.9 50.8-112.9 113.3 0 25 8 48.8 23.1 68.6 14.6 19.2 35.3 33.5 58.3 40.2 2.9 1 6 1.4 9.1 1.4zM817.3 93.2c-47.7 0-90.5 30.3-106.4 75.4-2.9 8.2-2.5 17 1.3 24.9 3.7 7.8 10.3 13.8 18.4 16.7 3.5 1.2 7.1 1.9 10.9 1.9 13.7 0 26-8.7 30.6-21.7 6.8-19.2 25-32.1 45.3-32.1 26.5 0 48 21.6 48 48.2 0 21.3-14.2 40.4-34.6 46.3-17.2 5-27.1 23.1-22.1 40.3 4 13.8 16.8 23.5 31.1 23.5 3.1 0 6.1-0.4 9-1.3 23-6.7 43.7-21 58.3-40.2 15.1-19.9 23-43.6 23-68.6 0.1-62.4-50.5-113.3-112.8-113.3zM777.8 284.2c-34.9-35.1-75.6-62.6-120.9-81.8-47-19.9-96.8-30-148.2-30-51.3 0-101.2 10.1-148.2 30-45.3 19.2-86 46.8-120.9 81.8-34.9 35.1-62.4 75.9-81.6 121.4-19.8 47.1-29.9 97.1-29.9 148.7 0 51.5 10.1 101.6 29.9 148.7 19.2 45.5 46.6 86.3 81.6 121.4 34.9 35.1 75.6 62.6 120.9 81.8 47 19.9 96.8 30 148.2 30 51.4 0 101.2-10.1 148.2-30 45.3-19.2 86-46.7 120.9-81.8 34.9-35.1 62.4-75.9 81.6-121.4 19.9-47.1 29.9-97.1 29.9-148.7 0-51.6-10-101.5-29.9-148.7-19.2-45.5-46.6-86.3-81.6-121.4zM508.7 871.1C334.7 871.1 193 729 193 554.3c0-174.7 141.6-316.8 315.7-316.8s315.7 142.1 315.7 316.8c0 174.7-141.6 316.8-315.7 316.8z" fill="#e04b42" p-id="4919"></path><path d="M696.5 415.7L478.1 603.1l-129.8-117c-7.3-6.6-16.8-10.2-26.6-10.2-11.3 0-22.1 4.8-29.7 13.3-14.7 16.4-13.3 41.7 3 56.5l156.2 140.8 1.4 1.2c1.2 0.9 2.4 1.8 3.7 2.6l1.5 0.9c1 0.5 1.9 1 2.8 1.4 0.7 0.3 1.4 0.6 2.5 1.1 1.9 0.7 3.9 1.3 6.2 1.8 1.2 0.3 2.5 0.5 3.1 0.5l1 0.1c0.5 0.1 1.1 0.1 1.1 0.1l2.9 0.1 4.4-0.2c1.3-0.1 2.6-0.4 3.8-0.6 2.1-0.4 4.2-1.1 6.1-1.8 0.7-0.3 1.4-0.5 2.3-0.9l3.9-2.1c0.5-0.3 1-0.6 1.4-0.9l248.9-213.3c8.1-7 13-16.6 13.8-27.3 0.8-10.6-2.6-21-9.5-29.1-7.6-8.9-18.6-14-30.3-14-9.3 0-18.5 3.4-25.7 9.6z" fill="#e04b42" p-id="4920" data-spm-anchor-id="a313x.manage_type_myprojects.0.i3.19523a81575j0I" class="selected"></path></svg>
